<svg version="1.2" xmlns="http://www.w3.org/2000/svg" xmlns:xlink="http://www.w3.org/1999/xlink" overflow="visible" preserveAspectRatio="none" viewBox="0 0 49.000000000000014 50.99999999999999" width="49.000000000000014" height="50.99999999999999">
    <path d="M15.91885,23.58288c0.19612,-2.56918 1.38255,-4.86498 3.19629,-6.56521c1.97647,-1.85366 4.69429,-2.99458 7.67081,-2.99458c3.46612,0 6.57478,1.39338 8.82665,3.62921c2.27273,2.25535 3.66641,5.36849 3.66641,8.76478c0,3.96674 -1.71359,7.49971 -4.45366,10.05076c-2.7512,2.5636 -6.53862,4.12854 -10.64595,4.12854c-4.81112,0 -9.08814,-1.93874 -12.18289,-5.02677c-3.15456,-3.14662 -5.07539,-7.48716 -5.07539,-12.17919c0,-5.50239 2.38957,-10.37435 6.18672,-13.89616c3.8514,-3.57202 9.15073,-5.7409 14.85481,-5.7409c6.71804,0 12.65162,2.70726 16.93977,7.00178c1.61483,1.61794 2.996,3.46184 4.09759,5.47031c-3.69284,-9.48169 -12.88251,-16.20172 -23.63973,-16.22543c-5.89324,0.04184 -10.38167,2.00848 -14.74214,6.03938c-4.52877,4.18851 -7.38846,9.98102 -7.38846,16.54902c0,5.501 2.24213,10.61425 5.94331,14.32156c3.59408,3.59852 8.56655,5.86643 14.19552,5.86643c4.71932,0 9.08257,-1.77416 12.23296,-4.69621c3.03772,-2.81745 4.94882,-6.71585 4.94882,-11.11776c0,-3.66408 -1.49244,-7.04641 -3.94459,-9.49285c-2.39513,-2.39065 -5.71382,-3.89143 -9.45394,-3.89143c-3.10449,0 -5.95305,1.16882 -8.00741,3.08385c-1.90553,1.77555 -3.12813,4.19828 -3.2255,6.92088zM40.71302,44.31205c4.52877,-4.18712 7.38846,-9.97963 7.38846,-16.54763c0,-5.501 -2.24213,-10.61564 -5.94331,-14.32156c-3.59269,-3.59852 -8.56516,-5.86782 -14.19552,-5.86782c-4.71932,0 -9.08118,1.77555 -12.23157,4.69621c-3.03912,2.81884 -4.95021,6.71585 -4.95021,11.11916c0,3.66408 1.49244,7.04502 3.94459,9.49145c2.39652,2.39065 5.71382,3.89282 9.45394,3.89282c3.10588,0 5.95305,-1.17022 8.0088,-3.08385c1.90553,-1.77555 3.12813,-4.19967 3.2255,-6.92088c-0.19751,2.56918 -1.38395,4.86498 -3.19629,6.56521c-1.97786,1.85366 -4.69568,2.99458 -7.6722,2.99458c-3.46612,0 -6.57339,-1.39478 -8.82665,-3.62921c-2.27273,-2.25675 -3.66641,-5.36849 -3.66641,-8.76478c0,-3.96814 1.71498,-7.49971 4.45366,-10.05076c2.7512,-2.5636 6.53862,-4.12854 10.64595,-4.12854c4.81251,0 9.08814,1.93874 12.18289,5.02538c3.15456,3.14801 5.07539,7.48716 5.07539,12.18058c0,5.50239 -2.38817,10.37435 -6.18533,13.89476c-3.8514,3.57202 -9.15212,5.74229 -14.8562,5.74229c-6.71665,0 -12.65023,-2.70726 -16.93837,-7.00178c-3.14065,-3.14522 -5.39669,-7.14544 -6.43013,-11.55433c0.52854,5.35036 2.70669,10.21534 6.01842,14.07608c4.69568,5.40894 11.64322,8.84428 19.40305,8.88054c5.2423,-0.0265 11.50274,-3.18288 15.29155,-6.68795z" style="stroke-width: 0; stroke-linecap: butt; stroke-linejoin: miter; fill: rgb(24, 117, 188);" vector-effect="non-scaling-stroke"/>
</svg>
