<svg version="1.2" xmlns="http://www.w3.org/2000/svg" xmlns:xlink="http://www.w3.org/1999/xlink" overflow="visible" preserveAspectRatio="none" viewBox="0 0 19 31" width="19" height="31"><g transform="translate(0, 0)"><g transform="translate(0, 0) rotate(0)"><path d="M9.50072,31c-3.0999,0 -5.45749,-1.24571 -7.07421,-3.73579c-1.61815,-2.49008 -2.42651,-6.41126 -2.42651,-11.76354c0,-5.35361 0.80836,-9.27479 2.42651,-11.76488c1.61672,-2.49008 3.97431,-3.73579 7.07421,-3.73579c3.09847,0 5.45606,1.24571 7.07421,3.73579c1.61672,2.49008 2.42507,6.41126 2.42507,11.76488c0,5.35228 -0.80836,9.27346 -2.42507,11.76354c-1.61815,2.49008 -3.97574,3.73579 -7.07421,3.73579zM9.50072,29.58224c2.63614,0 4.60606,-1.05098 5.91121,-3.15562c1.30515,-2.1033 1.957,-5.20157 1.957,-9.2948v-3.26365c0,-4.09323 -0.65186,-7.1915 -1.957,-9.2948c-1.30515,-2.10463 -3.27507,-3.15562 -5.91121,-3.15562c-2.63757,0 -4.6075,1.05098 -5.91264,3.15562c-1.30515,2.1033 -1.957,5.20157 -1.957,9.2948v3.26365c0,4.09323 0.65186,7.1915 1.957,9.2948c1.30515,2.10463 3.27507,3.15562 5.91264,3.15562z" style="stroke-width: 0; stroke-linecap: butt; stroke-linejoin: miter; fill: rgb(24, 117, 188);" vector-effect="non-scaling-stroke"/></g><defs><path id="path-16636319363303159" d="M9.50072,31c-3.0999,0 -5.45749,-1.24571 -7.07421,-3.73579c-1.61815,-2.49008 -2.42651,-6.41126 -2.42651,-11.76354c0,-5.35361 0.80836,-9.27479 2.42651,-11.76488c1.61672,-2.49008 3.97431,-3.73579 7.07421,-3.73579c3.09847,0 5.45606,1.24571 7.07421,3.73579c1.61672,2.49008 2.42507,6.41126 2.42507,11.76488c0,5.35228 -0.80836,9.27346 -2.42507,11.76354c-1.61815,2.49008 -3.97574,3.73579 -7.07421,3.73579zM9.50072,29.58224c2.63614,0 4.60606,-1.05098 5.91121,-3.15562c1.30515,-2.1033 1.957,-5.20157 1.957,-9.2948v-3.26365c0,-4.09323 -0.65186,-7.1915 -1.957,-9.2948c-1.30515,-2.10463 -3.27507,-3.15562 -5.91121,-3.15562c-2.63757,0 -4.6075,1.05098 -5.91264,3.15562c-1.30515,2.1033 -1.957,5.20157 -1.957,9.2948v3.26365c0,4.09323 0.65186,7.1915 1.957,9.2948c1.30515,2.10463 3.27507,3.15562 5.91264,3.15562z" vector-effect="non-scaling-stroke"/></defs></g></svg>