<?xml version="1.0" encoding="UTF-8" standalone="no"?>
<svg
   xmlns:dc="http://purl.org/dc/elements/1.1/"
   xmlns:cc="http://creativecommons.org/ns#"
   xmlns:rdf="http://www.w3.org/1999/02/22-rdf-syntax-ns#"
   xmlns:svg="http://www.w3.org/2000/svg"
   xmlns="http://www.w3.org/2000/svg"
   xmlns:sodipodi="http://sodipodi.sourceforge.net/DTD/sodipodi-0.dtd"
   xmlns:inkscape="http://www.inkscape.org/namespaces/inkscape"
   width="184"
   height="54"
   viewBox="0 0 41.728571 2.4534092"
   version="1.1"
   id="svg8"
   inkscape:version="1.0.2 (1.0.2+r75+1)"
   sodipodi:docname="logo.svg">
  <defs
     id="defs2">
    <path
       id="path-16636319363253133"
       d="m 135.94084,53.061309 c 0,0 0,-28.328529 0,-28.328529 0,0 0,-1.332401 0,-1.332401 0,0 1.61583,0 1.61583,0 0,0 0,1.332401 0,1.332401 0,0 0,28.328529 0,28.328529 0,0 0,1.332401 0,1.332401 0,0 -1.61583,0 -1.61583,0 0,0 0,-1.332401 0,-1.332401 z"
       vector-effect="non-scaling-stroke" />
    <path
       id="path-16636319363253131"
       d="m 146.13763,54.400379 c 0,0 0,-30.986663 0,-30.986663 0,0 18.49679,0 18.49679,0 0,0 0,1.464441 0,1.464441 0,0 -16.87677,0 -16.87677,0 0,0 0,13.051929 0,13.051929 0,0 16.2925,0 16.2925,0 0,0 0,1.464441 0,1.464441 0,0 -16.2925,0 -16.2925,0 0,0 0,13.540077 0,13.540077 0,0 16.87677,0 16.87677,0 0,0 0,1.465775 0,1.465775 0,0 -18.49679,0 -18.49679,0 z"
       vector-effect="non-scaling-stroke" />
    <path
       id="path-16636319363253127"
       d="m 171.13967,25.543691 c 0,0 -0.17891,0 -0.17891,0 0,0 0,28.84335 0,28.84335 0,0 -1.52637,0 -1.52637,0 0,0 0,-30.973325 0,-30.973325 0,0 2.33428,0 2.33428,0 0,0 14.45582,28.75399 14.45582,28.75399 0,0 0.17891,0 0.17891,0 0,0 0,-28.75399 0,-28.75399 0,0 1.52777,0 1.52777,0 0,0 0,30.973325 0,30.973325 0,0 -2.33428,0 -2.33428,0 0,0 -14.45722,-28.84335 -14.45722,-28.84335 z"
       vector-effect="non-scaling-stroke" />
    <path
       id="path-16636319363253129"
       d="m 202.78675,24.878157 c 0,0 0,29.508884 0,29.508884 0,0 -1.61583,0 -1.61583,0 0,0 0,-29.508884 0,-29.508884 0,0 -8.44118,0 -8.44118,0 0,0 0,-1.464441 0,-1.464441 0,0 18.49679,0 18.49679,0 0,0 0,1.464441 0,1.464441 0,0 -8.43978,0 -8.43978,0 z"
       vector-effect="non-scaling-stroke" />
    <path
       id="path-16636319363303159"
       d="M 9.50072,31 C 6.40082,31 4.04323,29.75429 2.42651,27.26421 0.80836,24.77413 0,20.85295 0,15.50067 0,10.14706 0.80836,6.22588 2.42651,3.73579 4.04323,1.24571 6.40082,0 9.50072,0 12.59919,0 14.95678,1.24571 16.57493,3.73579 18.19165,6.22587 19,10.14705 19,15.50067 19,20.85295 18.19164,24.77413 16.57493,27.26421 14.95678,29.75429 12.59919,31 9.50072,31 Z m 0,-1.41776 c 2.63614,0 4.60606,-1.05098 5.91121,-3.15562 1.30515,-2.1033 1.957,-5.20157 1.957,-9.2948 v -3.26365 c 0,-4.09323 -0.65186,-7.1915 -1.957,-9.2948 -1.30515,-2.10463 -3.27507,-3.15562 -5.91121,-3.15562 -2.63757,0 -4.6075,1.05098 -5.91264,3.15562 -1.30515,2.1033 -1.957,5.20157 -1.957,9.2948 v 3.26365 c 0,4.09323 0.65186,7.1915 1.957,9.2948 1.30515,2.10463 3.27507,3.15562 5.91264,3.15562 z"
       vector-effect="non-scaling-stroke" />
  </defs>
  <sodipodi:namedview
     id="base"
     pagecolor="#ffffff"
     bordercolor="#666666"
     borderopacity="1.0"
     inkscape:pageopacity="0.0"
     inkscape:pageshadow="2"
     inkscape:zoom="3.959798"
     inkscape:cx="88.377371"
     inkscape:cy="39.796949"
     inkscape:document-units="px"
     inkscape:current-layer="layer1"
     inkscape:document-rotation="0"
     showgrid="false"
     units="px"
     inkscape:window-width="1755"
     inkscape:window-height="780"
     inkscape:window-x="224"
     inkscape:window-y="160"
     inkscape:window-maximized="0" />
  <metadata
     id="metadata5">
    <rdf:RDF>
      <cc:Work
         rdf:about="">
        <dc:format>image/svg+xml</dc:format>
        <dc:type
           rdf:resource="http://purl.org/dc/dcmitype/StillImage" />
        <dc:title></dc:title>
      </cc:Work>
    </rdf:RDF>
  </metadata>
  <g
     inkscape:label="Слой 1"
     inkscape:groupmode="layer"
     id="layer1">
    <g
       id="g6724"
       transform="translate(0.03069963,-0.67808264)">
      <path
         d="m 3.8773519,1.4386042 c 0.04448,-0.5826533 0.313543,-1.103308 0.724873,-1.4888958 0.448235,-0.42038352 1.064598,-0.67912792 1.73963,-0.67912792 0.786067,0 1.491066,0.3159987 2.001758,0.82305292 0.515423,0.5114811 0.83149,1.2174968 0.83149,1.9877269 0,0.8996 -0.388618,1.7008271 -1.010027,2.2793688 -0.623933,0.5813878 -1.482865,0.9362939 -2.414349,0.9362939 -1.091093,0 -2.06106,-0.4396786 -2.762906,-1.1399997 C 2.2724122,3.4434149 1.8367954,2.4590425 1.8367954,1.394957 c 0,-1.2478634 0.5419203,-2.35275422 1.4030595,-3.1514504 0.873443,-0.8100831 2.075255,-1.3019541 3.368859,-1.3019541 1.523555,0 2.869206,0.6139679 3.8416981,1.5879037 0.36622,0.3669256 0.67945,0.78509578 0.929274,1.24058802 C 10.542203,-2.3802675 8.4581169,-3.9042743 6.0185339,-3.9096514 c -1.336503,0.00949 -2.354415,0.4554946 -3.343307,1.3696451 -1.0270605,0.9498942 -1.67559729,2.26355262 -1.67559729,3.7530812 0,1.2475483 0.50848299,2.4071603 1.34785769,3.2479252 0.8150856,0.8160929 1.9427716,1.3304225 3.2193416,1.3304225 1.070274,0 2.059797,-0.4023541 2.77426,-1.0650333 0.688912,-0.6389574 1.122322,-1.5230588 1.122322,-2.5213491 0,-0.8309611 -0.338464,-1.5980252 -0.894577,-2.1528428 -0.543181,-0.54216522 -1.295813,-0.88252062 -2.144018,-0.88252062 -0.704054,0 -1.350067,0.2650716 -1.815967,0.69937302 -0.432147,0.4026693 -0.709415,0.9521099 -0.731497,1.5695567 z m 5.622964,4.7010796 c 1.0270601,-0.949579 1.6755971,-2.2632375 1.6755971,-3.752766 0,-1.2475483 -0.508483,-2.4074756 -1.3478582,-3.24792522 C 9.0132839,-1.6771003 7.8855989,-2.1917451 6.6087139,-2.1917451 c -1.070275,0 -2.059482,0.4026694 -2.773945,1.0650333 -0.689229,0.63927268 -1.122637,1.5230588 -1.122637,2.5216665 0,0.8309611 0.338464,1.59771 0.894576,2.1525254 0.543497,0.5421652 1.295813,0.8828359 2.144019,0.8828359 0.704369,0 1.350066,-0.2653892 1.816281,-0.6993731 0.432147,-0.4026694 0.709415,-0.9524252 0.731497,-1.5695567 -0.04479,0.5826533 -0.31386,1.1033079 -0.724872,1.4888958 -0.448551,0.4203836 -1.064914,0.679128 -1.739946,0.679128 -0.786066,0 -1.490751,-0.3163162 -2.001758,-0.823053 -0.515422,-0.5117987 -0.831489,-1.2174968 -0.831489,-1.9877269 0,-0.8999175 0.388933,-1.7008271 1.010026,-2.27936872 0.623933,-0.58138778 1.482866,-0.93629388 2.41435,-0.93629388 1.091408,0 2.06106,0.4396786 2.762905,1.13968438 0.7154089,0.71392362 1.1510261,1.69798082 1.1510261,2.76238152 0,1.2478634 -0.5416032,2.3527543 -1.4027451,3.151133 -0.873442,0.8100831 -2.07557,1.3022693 -3.369173,1.3022693 -1.523241,0 -2.868892,-0.6139679 -3.8413807,-1.5879036 -0.7122546,-0.713291 -1.22389219,-1.6204837 -1.45826159,-2.620357 0.1198653,1.2133852 0.6138386,2.3166932 1.36489159,3.1922538 1.0649127,1.2266703 2.6405157,2.0057564 4.4003347,2.0139796 1.188879,-0.00601 2.608657,-0.7218317 3.467905,-1.5167315 z"
         style="fill:#1875bc;stroke-width:0;stroke-linecap:butt;stroke-linejoin:miter"
         vector-effect="non-scaling-stroke"
         id="path1494" />
      <g
         transform="matrix(0.22678571,0,0,0.22678571,-11.454404,-6.7367085)"
         id="g2129">
        <path
           d="m 129.64525,23.400379 c -2.76899,10.332444 -5.54358,20.670223 -8.31258,31 0,0 -1.82689,0 -1.82689,0 -2.769,-10.329777 -5.54219,-20.667556 -8.31259,-31 0,0 1.73185,0 1.73185,0 0,0 7.49488,27.951082 7.49488,27.951082 0,0 7.49488,-27.951082 7.49488,-27.951082 0,0 1.73045,0 1.73045,0 z"
           style="fill:#1875bc;stroke-width:0;stroke-linecap:butt;stroke-linejoin:miter"
           vector-effect="non-scaling-stroke"
           id="path2127" />
      </g>
      <g
         id="g2778"
         transform="matrix(0.22678571,0,0,0.22678571,19.420343,-1.4148897)">
        <defs
           id="defs2772">
          <path
             id="path3375"
             d="m 135.94084,53.061309 c 0,0 0,-28.328529 0,-28.328529 0,0 0,-1.332401 0,-1.332401 0,0 1.61583,0 1.61583,0 0,0 0,1.332401 0,1.332401 0,0 0,28.328529 0,28.328529 0,0 0,1.332401 0,1.332401 0,0 -1.61583,0 -1.61583,0 0,0 0,-1.332401 0,-1.332401 z"
             vector-effect="non-scaling-stroke" />
        </defs>
        <g
           transform="translate(-135.94084,-23.400379)"
           id="g2776">
          <path
             d="m 135.94084,53.061309 c 0,0 0,-28.328529 0,-28.328529 0,0 0,-1.332401 0,-1.332401 0,0 1.61583,0 1.61583,0 0,0 0,1.332401 0,1.332401 0,0 0,28.328529 0,28.328529 0,0 0,1.332401 0,1.332401 0,0 -1.61583,0 -1.61583,0 0,0 0,-1.332401 0,-1.332401 z"
             style="fill:#1875bc;stroke-width:0;stroke-linecap:butt;stroke-linejoin:miter"
             vector-effect="non-scaling-stroke"
             id="path2774" />
        </g>
      </g>
      <g
         id="g3441"
         transform="matrix(0.22678571,0,0,0.22678571,21.894301,-1.4565953)">
        <defs
           id="defs3435">
          <path
             id="path4038"
             d="m 146.13763,54.400379 c 0,0 0,-30.986663 0,-30.986663 0,0 18.49679,0 18.49679,0 0,0 0,1.464441 0,1.464441 0,0 -16.87677,0 -16.87677,0 0,0 0,13.051929 0,13.051929 0,0 16.2925,0 16.2925,0 0,0 0,1.464441 0,1.464441 0,0 -16.2925,0 -16.2925,0 0,0 0,13.540077 0,13.540077 0,0 16.87677,0 16.87677,0 0,0 0,1.465775 0,1.465775 0,0 -18.49679,0 -18.49679,0 z"
             vector-effect="non-scaling-stroke" />
        </defs>
        <g
           transform="translate(-146.13763,-23.413716)"
           id="g3439">
          <path
             d="m 146.13763,54.400379 c 0,0 0,-30.986663 0,-30.986663 0,0 18.49679,0 18.49679,0 0,0 0,1.464441 0,1.464441 0,0 -16.87677,0 -16.87677,0 0,0 0,13.051929 0,13.051929 0,0 16.2925,0 16.2925,0 0,0 0,1.464441 0,1.464441 0,0 -16.2925,0 -16.2925,0 0,0 0,13.540077 0,13.540077 0,0 16.87677,0 16.87677,0 0,0 0,1.465775 0,1.465775 0,0 -18.49679,0 -18.49679,0 z"
             style="fill:#1875bc;stroke-width:0;stroke-linecap:butt;stroke-linejoin:miter"
             vector-effect="non-scaling-stroke"
             id="path3437" />
        </g>
      </g>
      <g
         id="g4104"
         transform="matrix(0.22678571,0,0,0.22678571,26.94215,-1.5022404)">
        <defs
           id="defs4098">
          <path
             id="path4701"
             d="m 171.13967,25.543691 c 0,0 -0.17891,0 -0.17891,0 0,0 0,28.84335 0,28.84335 0,0 -1.52637,0 -1.52637,0 0,0 0,-30.973325 0,-30.973325 0,0 2.33428,0 2.33428,0 0,0 14.45582,28.75399 14.45582,28.75399 0,0 0.17891,0 0.17891,0 0,0 0,-28.75399 0,-28.75399 0,0 1.52777,0 1.52777,0 0,0 0,30.973325 0,30.973325 0,0 -2.33428,0 -2.33428,0 0,0 -14.45722,-28.84335 -14.45722,-28.84335 z"
             vector-effect="non-scaling-stroke" />
        </defs>
        <g
           transform="translate(-169.43439,-23.413716)"
           id="g4102">
          <path
             d="m 171.13967,25.543691 c 0,0 -0.17891,0 -0.17891,0 0,0 0,28.84335 0,28.84335 0,0 -1.52637,0 -1.52637,0 0,0 0,-30.973325 0,-30.973325 0,0 2.33428,0 2.33428,0 0,0 14.45582,28.75399 14.45582,28.75399 0,0 0.17891,0 0.17891,0 0,0 0,-28.75399 0,-28.75399 0,0 1.52777,0 1.52777,0 0,0 0,30.973325 0,30.973325 0,0 -2.33428,0 -2.33428,0 0,0 -14.45722,-28.84335 -14.45722,-28.84335 z"
             style="fill:#1875bc;stroke-width:0;stroke-linecap:butt;stroke-linejoin:miter"
             vector-effect="non-scaling-stroke"
             id="path4100" />
        </g>
      </g>
      <g
         id="g4767"
         transform="matrix(0.22678571,0,0,0.22678571,32.311676,-1.4434076)">
        <defs
           id="defs4761">
          <path
             id="path5364"
             d="m 202.78675,24.878157 c 0,0 0,29.508884 0,29.508884 0,0 -1.61583,0 -1.61583,0 0,0 0,-29.508884 0,-29.508884 0,0 -8.44118,0 -8.44118,0 0,0 0,-1.464441 0,-1.464441 0,0 18.49679,0 18.49679,0 0,0 0,1.464441 0,1.464441 0,0 -8.43978,0 -8.43978,0 z"
             vector-effect="non-scaling-stroke" />
        </defs>
        <g
           transform="translate(-192.72974,-23.413716)"
           id="g4765">
          <path
             d="m 202.78675,24.878157 c 0,0 0,29.508884 0,29.508884 0,0 -1.61583,0 -1.61583,0 0,0 0,-29.508884 0,-29.508884 0,0 -8.44118,0 -8.44118,0 0,0 0,-1.464441 0,-1.464441 0,0 18.49679,0 18.49679,0 0,0 0,1.464441 0,1.464441 0,0 -8.43978,0 -8.43978,0 z"
             style="fill:#1875bc;stroke-width:0;stroke-linecap:butt;stroke-linejoin:miter"
             vector-effect="non-scaling-stroke"
             id="path4763" />
        </g>
      </g>
      <g
         id="g5430"
         transform="matrix(0.22678571,0,0,0.22678571,36.961781,-1.4593923)">
        <g
           id="g5425">
          <path
             d="M 9.50072,31 C 6.40082,31 4.04323,29.75429 2.42651,27.26421 0.80836,24.77413 0,20.85295 0,15.50067 0,10.14706 0.80836,6.22588 2.42651,3.73579 4.04323,1.24571 6.40082,0 9.50072,0 12.59919,0 14.95678,1.24571 16.57493,3.73579 18.19165,6.22587 19,10.14705 19,15.50067 19,20.85295 18.19164,24.77413 16.57493,27.26421 14.95678,29.75429 12.59919,31 9.50072,31 Z m 0,-1.41776 c 2.63614,0 4.60606,-1.05098 5.91121,-3.15562 1.30515,-2.1033 1.957,-5.20157 1.957,-9.2948 v -3.26365 c 0,-4.09323 -0.65186,-7.1915 -1.957,-9.2948 -1.30515,-2.10463 -3.27507,-3.15562 -5.91121,-3.15562 -2.63757,0 -4.6075,1.05098 -5.91264,3.15562 -1.30515,2.1033 -1.957,5.20157 -1.957,9.2948 v 3.26365 c 0,4.09323 0.65186,7.1915 1.957,9.2948 1.30515,2.10463 3.27507,3.15562 5.91264,3.15562 z"
             style="fill:#1875bc;stroke-width:0;stroke-linecap:butt;stroke-linejoin:miter"
             vector-effect="non-scaling-stroke"
             id="path5423" />
        </g>
        <defs
           id="defs5428">
          <path
             id="path6029"
             d="M 9.50072,31 C 6.40082,31 4.04323,29.75429 2.42651,27.26421 0.80836,24.77413 0,20.85295 0,15.50067 0,10.14706 0.80836,6.22588 2.42651,3.73579 4.04323,1.24571 6.40082,0 9.50072,0 12.59919,0 14.95678,1.24571 16.57493,3.73579 18.19165,6.22587 19,10.14705 19,15.50067 19,20.85295 18.19164,24.77413 16.57493,27.26421 14.95678,29.75429 12.59919,31 9.50072,31 Z m 0,-1.41776 c 2.63614,0 4.60606,-1.05098 5.91121,-3.15562 1.30515,-2.1033 1.957,-5.20157 1.957,-9.2948 v -3.26365 c 0,-4.09323 -0.65186,-7.1915 -1.957,-9.2948 -1.30515,-2.10463 -3.27507,-3.15562 -5.91121,-3.15562 -2.63757,0 -4.6075,1.05098 -5.91264,3.15562 -1.30515,2.1033 -1.957,5.20157 -1.957,9.2948 v 3.26365 c 0,4.09323 0.65186,7.1915 1.957,9.2948 1.30515,2.10463 3.27507,3.15562 5.91264,3.15562 z"
             vector-effect="non-scaling-stroke" />
        </defs>
      </g>
    </g>
  </g>
</svg>
