<?xml version="1.0" encoding="UTF-8" standalone="no"?>
<!-- Creator: CorelDRAW 2021 (64-Bit) -->

<svg
   xml:space="preserve"
   width="930px"
   height="270px"
   version="1.1"
   style="shape-rendering:geometricPrecision; text-rendering:geometricPrecision; image-rendering:optimizeQuality; fill-rule:evenodd; clip-rule:evenodd"
   viewBox="0 0 930 270"
   id="svg22"
   sodipodi:docname="logo-white.svg"
   inkscape:version="1.1.2 (0a00cf5339, 2022-02-04)"
   xmlns:inkscape="http://www.inkscape.org/namespaces/inkscape"
   xmlns:sodipodi="http://sodipodi.sourceforge.net/DTD/sodipodi-0.dtd"
   xmlns="http://www.w3.org/2000/svg"
   xmlns:svg="http://www.w3.org/2000/svg"><sodipodi:namedview
   id="namedview24"
   pagecolor="#ffffff"
   bordercolor="#666666"
   borderopacity="1.0"
   inkscape:pageshadow="2"
   inkscape:pageopacity="0.0"
   inkscape:pagecheckerboard="0"
   showgrid="false"
   inkscape:zoom="0.6607527"
   inkscape:cx="126.37103"
   inkscape:cy="134.69487"
   inkscape:window-width="1920"
   inkscape:window-height="1007"
   inkscape:window-x="1920"
   inkscape:window-y="0"
   inkscape:window-maximized="1"
   inkscape:current-layer="svg22" />
 <defs
   id="defs16">
  <style
   type="text/css"
   id="style14">
   <![CDATA[
    .fil0 {fill:#109DD9}
   ]]>
  </style>
 </defs>
 <g
   id="Слой_x0020_1"
   inkscape:label="Слой 1">
  <metadata
   id="CorelCorpID_0Corel-Layer" />
  <path
   class="fil0"
   d="M445.67 89.33c22.44,0 40.64,17.66 40.64,39.44 0,1.12 -0.05,2.22 -0.14,3.31 -1.73,-20.24 -19.2,-36.14 -40.5,-36.14 -21.3,0 -38.77,15.9 -40.5,36.14 -0.09,-1.09 -0.14,-2.19 -0.14,-3.31 0,-21.78 18.19,-39.44 40.64,-39.44zm151.92 43.2c7.02,-13.46 17.33,-47.45 48.73,-76.42 11.79,-10.88 21.91,-18.23 36.79,-25.81 7.84,-4 14.53,-6.1 22.46,-8.77 25,-8.4 56.73,-8.02 80.69,0.14 21.51,7.33 41.44,19.97 55.58,38.3 11.16,14.46 18.9,30.6 21.78,48.9 0.63,4.01 -0.26,3.48 4.27,3.43 5.25,-0.06 10.53,-0.01 15.79,-0.01 0.01,-6.43 -4.23,-19.97 -6.62,-25.94 -14.99,-37.5 -48.48,-66.38 -86.64,-76.71 -8.81,-2.39 -17.93,-4.42 -27.4,-4.76 -1.83,-0.06 -1.87,-0.4 -3.45,-0.53l-11.25 0c-5.78,0.27 -11.75,0.79 -16.34,1.04 -11.76,0.62 -27.68,5.38 -38.76,9.79 -3.86,1.53 -7.66,3.4 -11.44,4.94 -9.12,3.72 -32.47,19.91 -38.25,26.92 -4.1,4.97 -7.72,7.94 -11.42,12.74 -1.29,1.67 -2.72,3 -3.78,4.45 -11.48,15.82 -16.71,22.84 -24.05,41.91 -2.17,5.62 -6.69,20.52 -6.69,26.39zm95.7 59.17l-11.65 6.74c0.89,5.59 16.93,21.17 21.7,25.57 6.8,6.29 20.38,14.26 29.35,17.82 18.7,7.42 40.88,10.12 60.57,5.08 5.8,-1.49 12.66,-3.37 18.13,-5.91 39.48,-18.31 63.6,-53.25 70.64,-95.61l2.16 -22.2c-2.88,0.07 -10.64,3.47 -13.82,4.6 -2.24,0.8 -4.38,1.77 -6.61,2.61 -4.12,1.53 -4.01,0.62 -4.01,5.77l-1.53 1.04c-0.24,11.76 -10.03,33.37 -17.61,43.8 -19.27,26.51 -53.13,40.29 -85.6,33.4 -21.17,-4.5 -42.39,-19.52 -52.22,-39.66 -4.52,-9.27 -5.58,-13.67 -7.27,-23.73 -6.93,-41.29 32.87,-82.59 78.4,-66.95 7.65,2.63 12.88,7.44 19.15,11.62l9.1 -3.04c-0.88,-4.88 -13.74,-13.88 -18.27,-16.17 -7.83,-3.95 -18.12,-7.83 -26.97,-7.78 -18.24,0.08 -25.5,1.47 -40.43,11.72 -8.32,5.71 -19.92,18.33 -24.57,27.89 -14.8,30.48 -13.59,53.3 1.36,83.39zm235.76 -51c-7.03,13.46 -17.33,47.46 -48.74,76.43 -11.78,10.88 -21.9,18.23 -36.78,25.81 -7.84,4 -14.54,6.1 -22.46,8.77 -25.01,8.4 -56.74,8.02 -80.69,-0.14 -21.51,-7.33 -41.44,-19.97 -55.58,-38.31 -33.89,-43.92 -33.45,-112.23 18.66,-143.53 11.06,-6.65 22.45,-11.83 35.15,-12.96 15.54,-1.37 28.36,-0.13 42.04,5.38 9.7,3.9 22.43,12.39 29.35,19.39 6.21,6.28 17.41,21.83 18.19,30.75l21.38 0c-0.44,-5.04 -4.94,-15.77 -7.3,-20.58 -2.92,-5.97 -7.02,-12.34 -10.93,-17.4 -11.41,-14.76 -31.8,-28.79 -49.98,-33.63 -6.32,-1.69 -16.81,-4.64 -23.4,-4.69 -4.32,-0.03 -8.72,-1.09 -13.05,-0.26 -2.36,0.45 -4.43,0.02 -6.71,0.39 -2.02,0.32 -4.17,0.61 -6.22,0.93 -119.07,18.75 -120.1,192.89 4.23,226.55 8.82,2.39 17.94,4.42 27.41,4.76 1.82,0.06 1.87,0.4 3.44,0.53l11.26 0c5.78,-0.27 11.74,-0.8 16.33,-1.04 11.76,-0.63 27.69,-5.38 38.76,-9.79 3.87,-1.53 7.67,-3.4 11.44,-4.94 9.13,-3.73 32.48,-19.91 38.25,-26.92 4.11,-4.97 7.73,-7.94 11.43,-12.74 1.29,-1.67 2.72,-3 3.77,-4.46 11.49,-15.82 16.72,-22.83 24.06,-41.9 2.17,-5.62 6.68,-20.52 6.69,-26.4zm-125.8 30.24c-12.32,0 -5.27,-0.98 -16.29,4.67 -6.97,3.58 -13.98,3.86 -21.36,3.62 -5.1,-0.16 -8.57,-0.92 -13.32,-2.52 -6.61,-2.22 -8.47,-5.18 -13.68,-7.85 1.69,6.36 16.54,15.11 25.48,16.06 5.13,0.54 10.87,0.46 16.05,-0.7 7.29,-1.64 21.85,-8.52 23.12,-13.28zm38.68 0l-5.6 0c1.03,-4.32 9.4,-14.79 10.69,-29.58l-22.38 7.83c-0.76,8.26 -8.55,18.51 -13.35,24.76 -11.73,15.31 -35.14,23.6 -55.18,19.09 -7.34,-1.65 -20.42,-7.29 -24.64,-13.8l-2.54 0c-1.82,-2.79 -6.47,-7.13 -8.83,-12.8 -2.28,-5.5 -4.44,-11.57 -4.41,-17.81 0.03,-8.03 0.04,-11.71 2.85,-18.9 3.66,-9.39 11.95,-18.32 20.9,-22.81 2.32,-1.16 5.4,-2.31 7.8,-2.94 7.13,-1.89 12.06,-2.03 19.35,-1.55 1.89,0.13 7.16,1.65 8.98,2.27 2.42,0.82 5.01,2.1 7.31,3.45 2.41,1.42 4.23,4.09 7.13,4.14 -1.04,-3.86 -8.67,-10.36 -12.2,-12.47 -5.43,-3.24 -12.01,-5.87 -18.34,-6.21 -2.2,-0.12 -3.11,-0.6 -5.61,-0.54 -5.33,0.13 -10.19,1.34 -15.33,3.07 -18.03,6.07 -30.56,22.73 -33.48,41.63 -4.41,28.48 10,51.78 34.57,64.31 17.08,8.7 43.26,10.73 61.79,3.32 10.27,-4.11 22.66,-10.92 30.14,-19.62 2.48,-2.88 9.56,-11.39 10.38,-14.84zm-548.27 -80.8c1.68,0 3.34,0.09 4.98,0.25 -26.38,0.95 -47.88,22.73 -50.92,50.63l107.01 0c-2.16,-8.97 -2.77,-14.42 -6.88,-23.11 -13.19,-27.96 -48.33,-44.75 -78.19,-30.65 -6.53,3.08 -12.17,7.43 -17.03,12.28 -9.31,9.3 -19.16,27.92 -19.16,39.48 -0.33,4.67 -0.35,9.54 0,14.66 0.01,10.51 9.43,29.46 16.81,37.15 9.5,9.92 18.19,17.58 32.35,20.95 21.06,5.02 43.72,-3.91 56.38,-21.19l10.1 -15.95 12.28 4.35c-0.67,7.56 -12.47,22.84 -17.81,28.17 -4.38,4.39 -10.52,8.32 -15.77,11.55 -23.95,14.7 -63.47,8.31 -82.18,-10.56 -2.74,-2.77 -6.63,-6.14 -8.83,-9.17 -2.77,-3.8 -4.59,-6.91 -7.06,-10.92 -10.03,-16.3 -12.32,-41.21 -7.75,-59.86 9.86,-40.23 42.41,-65.06 84.71,-58.41 19.12,3.01 33.15,13.19 45.18,27.43 12.91,15.29 16.17,37.03 16.17,56.46l-120.43 0 -4.98 0 -1.77 0c-0.2,-2 -0.3,-4.02 -0.3,-6.07 0,-31.74 23.77,-57.47 53.09,-57.47zm-103.61 -70.32c-0.33,0.06 -4.08,-0.64 -7.36,3.13 -5.24,6.04 -3.83,18.32 8.83,18.16 6.4,-0.08 10.7,-5.68 9.95,-11.99 -0.5,-4.26 -4.94,-9.87 -10.2,-9.71 -3.12,0.09 2.61,-0.32 -1.22,0.41zm-5.88 203.15l13.32 0 0 -150.57 -13.32 0 0 150.57zm343.78 -39.98c0,4.42 1.91,11.86 3.4,15.92 3.03,8.18 10.92,16.4 18.8,20.51 16.2,8.45 30.76,9.96 48.34,4.13 5.74,-1.91 22.13,-10 25.4,-14.57l-9.86 -11.45c-6.36,4.28 -4.41,6.16 -17.45,12.12 -25.08,11.45 -55.31,-6.31 -55.31,-26.66l0 -95.94 53.97 0c3.07,0 2,-3.74 2,-11.32 0,-1.54 -0.47,-2 -2,-2l-53.97 0 0 -66.63 -13.32 0 0 175.89zm-142.58 39.98l13.33 0c0,-31.1 0.02,-62.19 0,-93.28 -0.02,-20.17 7.73,-35.53 26.43,-43.52 17.1,-7.31 39.66,-4.61 54.36,8.7 10.27,9.3 13.15,20.11 13.15,34.16 0,31.31 0,62.62 0,93.94l13.32 0c0,-7.49 0.63,-102.38 -0.25,-107.02 -3.9,-20.73 -16.87,-36.43 -36.8,-43.15 -3.8,-1.28 -6.45,-1.98 -10.51,-2.81l-12.46 -1.57c-4.11,-0.27 -18.09,2.45 -22.69,3.88 -6.39,1.99 -12.21,5.02 -17.62,9.03 -22.94,17 -20.26,36.98 -20.26,60.35l0 81.29zm-213.19 -221.86l-15.33 0 -9.12 26.86c-3.44,8.41 -6.24,18.24 -9.12,26.85 -6,18.01 -12.32,35.63 -18.32,53.64 -6,18.01 -12.35,35.71 -18.32,53.63l-13.66 40.3c-2.4,7.26 -0.92,9.01 -6.02,11.97l-2.94 -1.12c-0.93,-2.18 -3.75,-17.96 -6.86,-27.17 -1.45,-4.29 -2.73,-8.75 -4.17,-13.15l-11.81 -39.48c-2.58,-8.7 -5.97,-17.61 -8.25,-26.4 -4.59,-17.63 -11.41,-35.12 -15.99,-52.63 -1.89,-7.22 -15.64,-49.27 -15.99,-53.3l-15.33 0 53.72 180.8c4.41,13.06 10.66,51.41 30.76,46.26 8.57,-2.19 14.63,-13.7 17.21,-21.44l29.98 -87.95c2.42,-7.26 39.2,-113.64 39.56,-117.67zm-149.5 0l6.71 0 29.12 118.23 -35.83 -118.23z"
   id="path19" />
 </g>
<path
   style="fill:#ffffff;stroke-width:0.756713"
   d="M 78.074513,227.68964 C 71.387895,225.70086 64.532285,214.34597 59.391616,196.74532 54.638759,180.47246 2.0813832,3.4552649 1.7070371,2.4593165 1.4381251,1.743876 3.1095717,1.5134255 8.567542,1.5134255 h 7.216036 l 1.243926,4.3510984 c 0.68416,2.3931041 3.298915,10.9912531 5.81057,19.1069971 2.511654,8.115744 5.919395,19.352929 7.572757,24.971521 1.653362,5.618592 5.68068,18.728641 8.949595,29.133442 3.268916,10.4048 7.333047,23.761846 9.031403,29.682326 1.698355,5.92049 3.450352,11.70934 3.893326,12.86412 0.82853,2.15988 16.508723,53.671 20.44892,67.1769 1.214195,4.16192 3.137949,11.44951 4.275016,16.19463 1.739668,7.25988 2.335753,8.72487 3.76031,9.24177 2.775744,1.00716 5.284413,-1.88233 6.973419,-8.032 0.800155,-2.91335 8.65721,-26.40928 17.46013,-52.21318 8.80292,-25.80391 23.9834,-70.401153 33.73441,-99.104999 9.75101,-28.703842 18.00896,-52.4686646 18.35101,-52.8107166 0.34206,-0.342052 3.75639,-0.5232817 7.58741,-0.4027327 l 6.96551,0.2191802 -15.07797,44.6460531 C 126.71789,135.50278 101.32893,209.31598 99.434282,213.21028 94.023354,224.33196 85.716948,229.96271 78.074513,227.68964 Z"
   id="path194" /><path
   style="fill:#ffffff;stroke-width:0.756713"
   d="M 37.129082,47.455321 C 29.911428,23.643951 23.843064,3.5660089 23.643829,2.8376729 23.344108,1.7419981 23.786615,1.5139769 26.207512,1.5166195 l 2.925929,0.00319 10.873113,44.3006655 c 5.980212,24.365367 10.731907,44.441869 10.559323,44.614452 -0.172584,0.172584 -6.219142,-19.168239 -13.436795,-42.97961 z"
   id="path233" /><path
   style="fill:#ffffff;stroke-width:0.756713"
   d="M 184.63791,147.55899 V 72.644425 h 6.05371 6.0537 v 74.914565 74.91456 h -6.0537 -6.05371 z"
   id="path272" /><path
   style="fill:#ffffff;stroke-width:0.756713"
   d="m 186.5297,39.835511 c -4.72543,-2.186058 -6.89193,-6.119003 -6.06546,-11.010886 0.75707,-4.48103 3.83943,-7.628246 8.28434,-8.458645 5.0625,-0.945777 8.4389,0.785143 10.91425,5.595212 2.26958,4.410236 1.77287,7.880313 -1.66499,11.631668 -1.93677,2.113378 -3.13605,2.727042 -5.81879,2.977443 -1.95379,0.182364 -4.33681,-0.127587 -5.64935,-0.734792 z"
   id="path311" /><path
   style="fill:#ffffff;stroke-width:0.756713"
   d="m 281.61844,225.12465 c -14.86022,-2.83467 -26.17349,-8.49268 -36.3186,-18.16371 -17.9808,-17.14056 -26.01195,-37.50895 -24.88489,-63.11244 0.55377,-12.58016 2.97408,-21.81932 8.84035,-33.74679 10.03132,-20.395964 25.34859,-33.287984 46.02763,-38.739882 6.20486,-1.635872 8.99897,-1.937944 17.94326,-1.939856 21.56562,-0.0046 36.74573,6.248828 51.95265,21.401873 10.73198,10.693965 16.48206,21.126705 19.80061,35.925545 1.23548,5.50952 2.78295,18.80848 2.78295,23.91662 v 2.94668 h -63.119 -63.119 l -0.48532,-2.87259 c -1.09118,-6.45862 2.0797,-21.81384 6.20423,-30.04441 7.95802,-15.8804 24.06459,-27.975296 39.3062,-29.516189 l 3.64983,-0.36899 -3.4052,1.009483 c -19.94615,5.913088 -35.76411,24.633196 -38.98974,46.143236 l -0.53117,3.54206 h 53.87904 53.87905 l -0.53404,-3.21603 c -4.4853,-27.01109 -22.00631,-47.321087 -46.94516,-54.417868 -8.6309,-2.456076 -21.88013,-2.448226 -29.83854,0.01768 -15.47847,4.795985 -26.6878,14.046465 -35.69489,29.457138 -7.21248,12.34018 -8.95521,18.70862 -8.93997,32.66916 0.0135,12.32794 1.07712,17.41312 5.67065,27.11014 4.85009,10.23866 9.44713,16.72665 16.49,23.27307 7.62949,7.09168 14.90731,11.69657 22.85257,14.45949 5.49556,1.91105 7.03044,2.10603 16.64768,2.1148 9.9457,0.009 10.99968,-0.13451 17.2237,-2.34638 3.64635,-1.29582 8.5839,-3.50198 10.97233,-4.90258 6.67364,-3.91347 15.74113,-13.46625 21.27177,-22.41024 2.63793,-4.26597 5.15113,-7.75631 5.58489,-7.75631 1.11655,0 9.89158,3.15594 10.67772,3.84024 0.89379,0.77801 -2.53648,8.04751 -6.8839,14.58855 -9.58792,14.42576 -25.41594,26.26646 -40.6854,30.43613 -6.23636,1.70297 -23.95169,2.10073 -31.28229,0.70237 z"
   id="path350" /><path
   style="fill:#ffffff;stroke-width:0.756713"
   d="m 385.92351,169.47176 c 0,-58.73045 0.0745,-59.80731 4.84033,-69.981937 5.79218,-12.365742 20.51888,-23.697428 35.72977,-27.492815 14.16489,-3.534393 20.63344,-3.752986 33.58775,-1.135037 21.83467,4.412588 38.17522,19.181551 43.84,39.623589 1.51088,5.45221 1.56276,7.40476 1.56276,58.81371 v 53.17428 h -5.99056 -5.99056 l -0.32903,-51.64564 c -0.28501,-44.73369 -0.49529,-52.28055 -1.57117,-56.3896 -2.63228,-10.05326 -8.0837,-17.72887 -16.67046,-23.472042 -16.36417,-10.945022 -37.18849,-12.060854 -54.5784,-2.924479 -6.33006,3.325706 -13.98324,11.144032 -16.90849,17.273341 -4.97001,10.41372 -4.89022,9.40562 -5.21497,65.89113 l -0.29474,51.26729 h -6.00612 -6.00611 z"
   id="path389" /><path
   style="fill:#ffffff;stroke-width:0.756713"
   d="m 484.29617,122.53983 c 0,-2.13109 -4.59007,-9.80344 -8.20501,-13.71478 -4.70659,-5.09248 -10.60025,-8.875657 -17.52323,-11.248274 -7.32598,-2.510732 -18.80563,-2.410375 -26.30616,0.229972 -3.02311,1.064199 -7.18509,3.018432 -9.24885,4.342742 -5.22055,3.35002 -11.58281,10.45807 -14.39303,16.08021 -2.30704,4.61547 -2.35691,4.65948 -1.95778,1.72784 0.73994,-5.43477 4.85806,-12.50169 10.60225,-18.19403 8.40116,-8.325343 16.64493,-11.689516 28.68439,-11.70571 11.6455,-0.01566 21.94314,4.52441 29.81441,13.14473 4.33882,4.75171 8.1846,12.021 8.97515,16.96482 0.2794,1.74726 0.29421,3.17683 0.0329,3.17683 -0.26129,0 -0.47507,-0.36196 -0.47507,-0.80435 z"
   id="path465" /><path
   style="fill:#ffffff;stroke-width:0.756713"
   d="m 572.22079,226.20228 c -12.31977,-1.59945 -23.67459,-6.88329 -31.4721,-14.64517 -6.18063,-6.1524 -8.8288,-11.0079 -11.0446,-20.25061 -1.46166,-6.09701 -1.50814,-9.01557 -1.51328,-95.014801 l -0.005,-88.7245714 h 6.43206 6.43205 V 40.853166 74.139204 l 27.8092,0.198501 27.80919,0.198502 0.22531,5.175924 c 0.13774,3.164481 -0.11882,5.590562 -0.66019,6.242879 -0.7319,0.881881 -5.59834,1.066958 -28.05486,1.066958 h -27.16935 l 0.20953,51.267292 0.20953,51.26729 2.17193,4.1271 c 4.49921,8.5494 16.02081,16.66513 26.80958,18.88446 5.60352,1.15269 14.8909,1.01254 19.82646,-0.29919 6.49399,-1.72591 14.65578,-6.11722 19.35916,-10.41584 l 4.29351,-3.92402 2.59143,3.00251 c 1.42528,1.65139 3.50071,4.15598 4.61206,5.56575 l 2.02064,2.56323 -2.88259,2.49181 c -3.80897,3.29259 -17.90461,10.41475 -24.42659,12.34212 -4.31341,1.27469 -17.01399,3.36024 -18.41188,3.0234 -0.21902,-0.0528 -2.54592,-0.3748 -5.1709,-0.7156 z"
   id="path504" /><path
   style="fill:#ffffff;stroke-width:0.756713"
   d="m 598.60819,127.75579 c -0.095,-2.48032 5.35734,-19.98032 8.67104,-27.830871 6.43319,-15.241058 17.35106,-31.436238 31.90947,-47.333382 19.61453,-21.41822 44.25076,-35.756209 75.26905,-43.8056811 9.99287,-2.5932208 21.19188,-3.7247102 37.33638,-3.7722678 14.8002,-0.043598 20.8718,0.6806452 34.71203,4.1405847 22.6978,5.6742532 42.35259,16.4704482 58.9161,32.3620502 12.76222,12.244527 21.05079,23.439816 27.80819,37.560261 4.82991,10.092724 9.85334,25.869236 9.85334,30.945266 v 1.97174 l -9.26973,-0.002 -9.26973,-0.002 -1.34428,-6.92331 c -7.51133,-38.685393 -37.01047,-70.568223 -77.5798,-83.849192 -14.07039,-4.606152 -21.48903,-5.658835 -39.87982,-5.658835 -19.07368,0 -25.76581,1.020014 -42.51922,6.480781 -25.16872,8.203734 -44.72449,20.616393 -63.80874,40.501406 -15.39877,16.044888 -23.57197,29.241369 -39.53372,63.83123 -0.67219,1.45667 -1.24394,2.07982 -1.27056,1.38476 z"
   id="path543" /><path
   style="fill:#ffffff;stroke-width:0.756713"
   d="m 763.90153,268.14749 c -29.52188,-3.36522 -51.89127,-11.49893 -71.39446,-25.95966 -32.5003,-24.0975 -50.80438,-62.67785 -49.02445,-103.33104 2.05356,-46.902679 28.99875,-83.820551 70.85423,-97.078096 24.61743,-7.797467 47.10147,-7.588255 71.19783,0.662488 26.79267,9.173977 49.46822,31.05048 59.93527,57.823258 1.46443,3.74573 2.89196,7.91711 3.1723,9.26973 l 0.50972,2.45932 h -10.22206 -10.22204 l -1.16171,-3.99611 c -1.42484,-4.90129 -7.29902,-14.809482 -12.86167,-21.694278 -10.00866,-12.387514 -27.30932,-23.291679 -44.19516,-27.855071 -6.73275,-1.819525 -8.54208,-1.983214 -21.72205,-1.96518 -16.05314,0.02197 -20.72155,0.871096 -31.96198,5.81352 -31.15398,13.698431 -50.40908,38.308539 -54.69928,69.911639 -1.17676,8.6684 -0.56803,27.09492 1.15708,35.02551 7.28705,33.49972 27.72088,60.63003 57.27713,76.04773 14.75353,7.69602 26.86312,11.61822 42.07581,13.62801 55.0516,7.27301 109.60678,-19.08797 142.85329,-69.02648 4.91851,-7.38794 14.4059,-25.50301 19.30025,-36.85161 5.66884,-13.14446 1.81313,4.07002 -4.39173,19.60756 -6.87051,17.20441 -17.51054,33.35904 -33.24891,50.48146 -19.70893,21.44216 -47.73291,37.19497 -78.31781,44.02394 -11.66345,2.60421 -34.82368,4.15307 -44.9096,3.00336 z"
   id="path582" /><path
   style="fill:#ffffff;stroke-width:0.756713"
   d="m 763.48926,208.83056 c -28.06849,-3.93108 -50.8698,-22.77527 -57.19919,-47.27239 -1.80206,-6.97466 -1.80267,-20.64603 -10e-4,-27.99837 2.89536,-11.81713 10.72481,-23.83714 19.69715,-30.23967 19.21514,-13.711633 43.19832,-12.582595 58.68716,2.76278 4.53624,4.49422 6.15519,7.23365 2.87568,4.86595 -8.81017,-6.36065 -16.23386,-8.79717 -26.75571,-8.78145 -13.35207,0.0199 -23.58619,3.86909 -31.94191,12.01362 -12.81487,12.49098 -16.73184,29.05651 -11.09197,46.90986 2.31898,7.34085 9.32594,18.25003 11.72199,18.25003 0.49643,0 2.5454,1.47702 4.55327,3.28228 4.61659,4.15071 13.43992,8.47538 21.39715,10.48759 5.12018,1.29479 7.58775,1.48678 14.50846,1.12889 4.58644,-0.23718 10.38211,-0.98546 12.87926,-1.66284 6.62268,-1.79646 15.98532,-6.54196 21.18796,-10.73919 7.81739,-6.30671 19.11836,-22.86859 20.45718,-29.98057 0.43988,-2.33673 0.75949,-2.51227 11.05278,-6.07072 5.82988,-2.01542 10.74527,-3.51893 10.92308,-3.34111 0.84378,0.84377 -3.06237,12.81776 -6.46688,19.82374 -2.09323,4.30755 -3.80587,8.0175 -3.80587,8.24432 0,0.22683 1.22556,0.5181 2.72347,0.64727 l 2.72347,0.23486 -3.10576,4.64159 c -10.04293,15.00923 -26.65755,26.53664 -45.18292,31.34839 -6.90161,1.79261 -22.09957,2.52873 -29.8366,1.44514 z"
   id="path658" /><path
   style="fill:#ffffff;stroke-width:0.756713"
   d="m 760.11797,248.44723 c -16.64915,-2.08653 -32.77153,-8.25918 -47.70862,-18.26581 -7.52371,-5.04027 -24.30474,-21.51809 -28.25074,-27.74027 l -2.34535,-3.69824 5.98859,-3.37755 5.9886,-3.37756 -1.89704,-4.24248 c -7.70607,-17.2337 -9.67911,-25.2064 -9.66418,-39.05126 0.0133,-12.3176 1.40426,-19.11416 6.56209,-32.06355 4.04961,-10.16706 8.75291,-17.346801 16.8994,-25.797489 9.91765,-10.28799 21.76221,-17.816696 31.53668,-20.04552 8.42313,-1.920686 19.94173,-2.27635 27.11284,-0.837174 7.74692,1.554734 17.51968,5.576989 24.20908,9.963919 5.63323,3.694293 13.01981,10.638671 12.61331,11.858197 -0.14857,0.445688 -1.98055,1.391735 -4.07107,2.102326 l -3.80095,1.291983 -7.58532,-5.067499 C 761.62635,74.01292 731.8056,77.869935 711.17549,99.738936 700.3958,111.16598 694.69642,125.50044 694.6735,141.24295 c -0.0609,41.86355 34.13717,75.1769 77.17352,75.1769 22.7414,0 43.83342,-8.84212 60.25096,-25.25819 3.79649,-3.79616 8.51199,-9.39693 10.47891,-12.44617 6.93524,-10.75145 14.22469,-28.0651 15.25913,-36.24296 0.25155,-1.98866 0.92739,-4.36993 1.50188,-5.29172 0.57448,-0.92179 1.04481,-2.45413 1.04518,-3.40521 7.3e-4,-1.84571 -0.15859,-1.76973 16.45783,-7.84864 3.84978,-1.4084 6.99959,-2.43945 6.99959,-2.29123 0,3.44259 -2.76533,24.68323 -3.89366,29.90747 -10.54005,48.80081 -47.77994,86.31338 -93.62205,94.30757 -5.73058,0.99933 -20.33919,1.33182 -26.20682,0.59646 z"
   id="path697" /><path
   style="fill:#ffffff;stroke-width:0.756713"
   d="m 758.89402,183.19672 c -5.20325,-1.6645 -11.32696,-5.10972 -15.61291,-8.78389 -4.6125,-3.9541 -3.96332,-4.60245 1.24058,-1.23901 7.45367,4.81754 11.61638,5.78875 24.81127,5.78875 h 11.48514 l 7.81104,-3.98489 c 5.98681,-3.05425 8.59519,-3.98206 11.16864,-3.97275 l 3.35761,0.0121 -2.22254,2.33821 c -2.53892,2.67107 -15.60968,9.20272 -20.9079,10.44799 -5.43946,1.27846 -16.20424,0.96946 -21.13093,-0.60656 z"
   id="path736" /></svg>
