<?xml version="1.0" encoding="UTF-8" standalone="no"?>
<!-- Creator: CorelDRAW 2021 (64-Bit) -->

<svg
   xml:space="preserve"
   width="930px"
   height="270px"
   version="1.1"
   style="shape-rendering:geometricPrecision; text-rendering:geometricPrecision; image-rendering:optimizeQuality; fill-rule:evenodd; clip-rule:evenodd"
   viewBox="0 0 930 270"
   id="svg22"
   sodipodi:docname="logo.svg"
   inkscape:version="1.1.2 (0a00cf5339, 2022-02-04)"
   xmlns:inkscape="http://www.inkscape.org/namespaces/inkscape"
   xmlns:sodipodi="http://sodipodi.sourceforge.net/DTD/sodipodi-0.dtd"
   xmlns="http://www.w3.org/2000/svg"
   xmlns:svg="http://www.w3.org/2000/svg"><sodipodi:namedview
   id="namedview24"
   pagecolor="#ffffff"
   bordercolor="#666666"
   borderopacity="1.0"
   inkscape:pageshadow="2"
   inkscape:pageopacity="0.0"
   inkscape:pagecheckerboard="0"
   showgrid="false"
   inkscape:zoom="1.3215054"
   inkscape:cx="465"
   inkscape:cy="134.69487"
   inkscape:window-width="1920"
   inkscape:window-height="1007"
   inkscape:window-x="1920"
   inkscape:window-y="0"
   inkscape:window-maximized="1"
   inkscape:current-layer="svg22" />
 <defs
   id="defs16">
  <style
   type="text/css"
   id="style14">
   <![CDATA[
    .fil0 {fill:#109DD9}
   ]]>
  </style>
 </defs>
 <g
   id="Слой_x0020_1"
   inkscape:label="Слой 1">
  <metadata
   id="CorelCorpID_0Corel-Layer" />
  <path
   class="fil0"
   d="M445.67 89.33c22.44,0 40.64,17.66 40.64,39.44 0,1.12 -0.05,2.22 -0.14,3.31 -1.73,-20.24 -19.2,-36.14 -40.5,-36.14 -21.3,0 -38.77,15.9 -40.5,36.14 -0.09,-1.09 -0.14,-2.19 -0.14,-3.31 0,-21.78 18.19,-39.44 40.64,-39.44zm151.92 43.2c7.02,-13.46 17.33,-47.45 48.73,-76.42 11.79,-10.88 21.91,-18.23 36.79,-25.81 7.84,-4 14.53,-6.1 22.46,-8.77 25,-8.4 56.73,-8.02 80.69,0.14 21.51,7.33 41.44,19.97 55.58,38.3 11.16,14.46 18.9,30.6 21.78,48.9 0.63,4.01 -0.26,3.48 4.27,3.43 5.25,-0.06 10.53,-0.01 15.79,-0.01 0.01,-6.43 -4.23,-19.97 -6.62,-25.94 -14.99,-37.5 -48.48,-66.38 -86.64,-76.71 -8.81,-2.39 -17.93,-4.42 -27.4,-4.76 -1.83,-0.06 -1.87,-0.4 -3.45,-0.53l-11.25 0c-5.78,0.27 -11.75,0.79 -16.34,1.04 -11.76,0.62 -27.68,5.38 -38.76,9.79 -3.86,1.53 -7.66,3.4 -11.44,4.94 -9.12,3.72 -32.47,19.91 -38.25,26.92 -4.1,4.97 -7.72,7.94 -11.42,12.74 -1.29,1.67 -2.72,3 -3.78,4.45 -11.48,15.82 -16.71,22.84 -24.05,41.91 -2.17,5.62 -6.69,20.52 -6.69,26.39zm95.7 59.17l-11.65 6.74c0.89,5.59 16.93,21.17 21.7,25.57 6.8,6.29 20.38,14.26 29.35,17.82 18.7,7.42 40.88,10.12 60.57,5.08 5.8,-1.49 12.66,-3.37 18.13,-5.91 39.48,-18.31 63.6,-53.25 70.64,-95.61l2.16 -22.2c-2.88,0.07 -10.64,3.47 -13.82,4.6 -2.24,0.8 -4.38,1.77 -6.61,2.61 -4.12,1.53 -4.01,0.62 -4.01,5.77l-1.53 1.04c-0.24,11.76 -10.03,33.37 -17.61,43.8 -19.27,26.51 -53.13,40.29 -85.6,33.4 -21.17,-4.5 -42.39,-19.52 -52.22,-39.66 -4.52,-9.27 -5.58,-13.67 -7.27,-23.73 -6.93,-41.29 32.87,-82.59 78.4,-66.95 7.65,2.63 12.88,7.44 19.15,11.62l9.1 -3.04c-0.88,-4.88 -13.74,-13.88 -18.27,-16.17 -7.83,-3.95 -18.12,-7.83 -26.97,-7.78 -18.24,0.08 -25.5,1.47 -40.43,11.72 -8.32,5.71 -19.92,18.33 -24.57,27.89 -14.8,30.48 -13.59,53.3 1.36,83.39zm235.76 -51c-7.03,13.46 -17.33,47.46 -48.74,76.43 -11.78,10.88 -21.9,18.23 -36.78,25.81 -7.84,4 -14.54,6.1 -22.46,8.77 -25.01,8.4 -56.74,8.02 -80.69,-0.14 -21.51,-7.33 -41.44,-19.97 -55.58,-38.31 -33.89,-43.92 -33.45,-112.23 18.66,-143.53 11.06,-6.65 22.45,-11.83 35.15,-12.96 15.54,-1.37 28.36,-0.13 42.04,5.38 9.7,3.9 22.43,12.39 29.35,19.39 6.21,6.28 17.41,21.83 18.19,30.75l21.38 0c-0.44,-5.04 -4.94,-15.77 -7.3,-20.58 -2.92,-5.97 -7.02,-12.34 -10.93,-17.4 -11.41,-14.76 -31.8,-28.79 -49.98,-33.63 -6.32,-1.69 -16.81,-4.64 -23.4,-4.69 -4.32,-0.03 -8.72,-1.09 -13.05,-0.26 -2.36,0.45 -4.43,0.02 -6.71,0.39 -2.02,0.32 -4.17,0.61 -6.22,0.93 -119.07,18.75 -120.1,192.89 4.23,226.55 8.82,2.39 17.94,4.42 27.41,4.76 1.82,0.06 1.87,0.4 3.44,0.53l11.26 0c5.78,-0.27 11.74,-0.8 16.33,-1.04 11.76,-0.63 27.69,-5.38 38.76,-9.79 3.87,-1.53 7.67,-3.4 11.44,-4.94 9.13,-3.73 32.48,-19.91 38.25,-26.92 4.11,-4.97 7.73,-7.94 11.43,-12.74 1.29,-1.67 2.72,-3 3.77,-4.46 11.49,-15.82 16.72,-22.83 24.06,-41.9 2.17,-5.62 6.68,-20.52 6.69,-26.4zm-125.8 30.24c-12.32,0 -5.27,-0.98 -16.29,4.67 -6.97,3.58 -13.98,3.86 -21.36,3.62 -5.1,-0.16 -8.57,-0.92 -13.32,-2.52 -6.61,-2.22 -8.47,-5.18 -13.68,-7.85 1.69,6.36 16.54,15.11 25.48,16.06 5.13,0.54 10.87,0.46 16.05,-0.7 7.29,-1.64 21.85,-8.52 23.12,-13.28zm38.68 0l-5.6 0c1.03,-4.32 9.4,-14.79 10.69,-29.58l-22.38 7.83c-0.76,8.26 -8.55,18.51 -13.35,24.76 -11.73,15.31 -35.14,23.6 -55.18,19.09 -7.34,-1.65 -20.42,-7.29 -24.64,-13.8l-2.54 0c-1.82,-2.79 -6.47,-7.13 -8.83,-12.8 -2.28,-5.5 -4.44,-11.57 -4.41,-17.81 0.03,-8.03 0.04,-11.71 2.85,-18.9 3.66,-9.39 11.95,-18.32 20.9,-22.81 2.32,-1.16 5.4,-2.31 7.8,-2.94 7.13,-1.89 12.06,-2.03 19.35,-1.55 1.89,0.13 7.16,1.65 8.98,2.27 2.42,0.82 5.01,2.1 7.31,3.45 2.41,1.42 4.23,4.09 7.13,4.14 -1.04,-3.86 -8.67,-10.36 -12.2,-12.47 -5.43,-3.24 -12.01,-5.87 -18.34,-6.21 -2.2,-0.12 -3.11,-0.6 -5.61,-0.54 -5.33,0.13 -10.19,1.34 -15.33,3.07 -18.03,6.07 -30.56,22.73 -33.48,41.63 -4.41,28.48 10,51.78 34.57,64.31 17.08,8.7 43.26,10.73 61.79,3.32 10.27,-4.11 22.66,-10.92 30.14,-19.62 2.48,-2.88 9.56,-11.39 10.38,-14.84zm-548.27 -80.8c1.68,0 3.34,0.09 4.98,0.25 -26.38,0.95 -47.88,22.73 -50.92,50.63l107.01 0c-2.16,-8.97 -2.77,-14.42 -6.88,-23.11 -13.19,-27.96 -48.33,-44.75 -78.19,-30.65 -6.53,3.08 -12.17,7.43 -17.03,12.28 -9.31,9.3 -19.16,27.92 -19.16,39.48 -0.33,4.67 -0.35,9.54 0,14.66 0.01,10.51 9.43,29.46 16.81,37.15 9.5,9.92 18.19,17.58 32.35,20.95 21.06,5.02 43.72,-3.91 56.38,-21.19l10.1 -15.95 12.28 4.35c-0.67,7.56 -12.47,22.84 -17.81,28.17 -4.38,4.39 -10.52,8.32 -15.77,11.55 -23.95,14.7 -63.47,8.31 -82.18,-10.56 -2.74,-2.77 -6.63,-6.14 -8.83,-9.17 -2.77,-3.8 -4.59,-6.91 -7.06,-10.92 -10.03,-16.3 -12.32,-41.21 -7.75,-59.86 9.86,-40.23 42.41,-65.06 84.71,-58.41 19.12,3.01 33.15,13.19 45.18,27.43 12.91,15.29 16.17,37.03 16.17,56.46l-120.43 0 -4.98 0 -1.77 0c-0.2,-2 -0.3,-4.02 -0.3,-6.07 0,-31.74 23.77,-57.47 53.09,-57.47zm-103.61 -70.32c-0.33,0.06 -4.08,-0.64 -7.36,3.13 -5.24,6.04 -3.83,18.32 8.83,18.16 6.4,-0.08 10.7,-5.68 9.95,-11.99 -0.5,-4.26 -4.94,-9.87 -10.2,-9.71 -3.12,0.09 2.61,-0.32 -1.22,0.41zm-5.88 203.15l13.32 0 0 -150.57 -13.32 0 0 150.57zm343.78 -39.98c0,4.42 1.91,11.86 3.4,15.92 3.03,8.18 10.92,16.4 18.8,20.51 16.2,8.45 30.76,9.96 48.34,4.13 5.74,-1.91 22.13,-10 25.4,-14.57l-9.86 -11.45c-6.36,4.28 -4.41,6.16 -17.45,12.12 -25.08,11.45 -55.31,-6.31 -55.31,-26.66l0 -95.94 53.97 0c3.07,0 2,-3.74 2,-11.32 0,-1.54 -0.47,-2 -2,-2l-53.97 0 0 -66.63 -13.32 0 0 175.89zm-142.58 39.98l13.33 0c0,-31.1 0.02,-62.19 0,-93.28 -0.02,-20.17 7.73,-35.53 26.43,-43.52 17.1,-7.31 39.66,-4.61 54.36,8.7 10.27,9.3 13.15,20.11 13.15,34.16 0,31.31 0,62.62 0,93.94l13.32 0c0,-7.49 0.63,-102.38 -0.25,-107.02 -3.9,-20.73 -16.87,-36.43 -36.8,-43.15 -3.8,-1.28 -6.45,-1.98 -10.51,-2.81l-12.46 -1.57c-4.11,-0.27 -18.09,2.45 -22.69,3.88 -6.39,1.99 -12.21,5.02 -17.62,9.03 -22.94,17 -20.26,36.98 -20.26,60.35l0 81.29zm-213.19 -221.86l-15.33 0 -9.12 26.86c-3.44,8.41 -6.24,18.24 -9.12,26.85 -6,18.01 -12.32,35.63 -18.32,53.64 -6,18.01 -12.35,35.71 -18.32,53.63l-13.66 40.3c-2.4,7.26 -0.92,9.01 -6.02,11.97l-2.94 -1.12c-0.93,-2.18 -3.75,-17.96 -6.86,-27.17 -1.45,-4.29 -2.73,-8.75 -4.17,-13.15l-11.81 -39.48c-2.58,-8.7 -5.97,-17.61 -8.25,-26.4 -4.59,-17.63 -11.41,-35.12 -15.99,-52.63 -1.89,-7.22 -15.64,-49.27 -15.99,-53.3l-15.33 0 53.72 180.8c4.41,13.06 10.66,51.41 30.76,46.26 8.57,-2.19 14.63,-13.7 17.21,-21.44l29.98 -87.95c2.42,-7.26 39.2,-113.64 39.56,-117.67zm-149.5 0l6.71 0 29.12 118.23 -35.83 -118.23z"
   id="path19" />
 </g>
</svg>
