<svg version="1.2" xmlns="http://www.w3.org/2000/svg" xmlns:xlink="http://www.w3.org/1999/xlink" overflow="visible" preserveAspectRatio="none" viewBox="0 0 18.496788574784887 30.973325302241534" width="18.496788574784887" height="30.973325302241534"><g transform="translate(0, 0)"><defs><path id="path-16636319363253129" d="M202.78675227481588 24.878156864432302 C202.78675227481588 24.878156864432302 202.78675227481588 54.38704125973411 202.78675227481588 54.38704125973411 C202.78675227481588 54.38704125973411 201.17092157939902 54.38704125973411 201.17092157939902 54.38704125973411 C201.17092157939902 54.38704125973411 201.17092157939902 24.878156864432302 201.17092157939902 24.878156864432302 C201.17092157939902 24.878156864432302 192.7297437510059 24.878156864432302 192.7297437510059 24.878156864432302 C192.7297437510059 24.878156864432302 192.7297437510059 23.413715957492585 192.7297437510059 23.413715957492585 C192.7297437510059 23.413715957492585 211.2265323257908 23.413715957492585 211.2265323257908 23.413715957492585 C211.2265323257908 23.413715957492585 211.2265323257908 24.878156864432302 211.2265323257908 24.878156864432302 C211.2265323257908 24.878156864432302 202.78675227481588 24.878156864432302 202.78675227481588 24.878156864432302 Z" vector-effect="non-scaling-stroke"/></defs><g transform="translate(-192.7297437510059, -23.413715957492585)"><path d="M202.78675227481588 24.878156864432302 C202.78675227481588 24.878156864432302 202.78675227481588 54.38704125973411 202.78675227481588 54.38704125973411 C202.78675227481588 54.38704125973411 201.17092157939902 54.38704125973411 201.17092157939902 54.38704125973411 C201.17092157939902 54.38704125973411 201.17092157939902 24.878156864432302 201.17092157939902 24.878156864432302 C201.17092157939902 24.878156864432302 192.7297437510059 24.878156864432302 192.7297437510059 24.878156864432302 C192.7297437510059 24.878156864432302 192.7297437510059 23.413715957492585 192.7297437510059 23.413715957492585 C192.7297437510059 23.413715957492585 211.2265323257908 23.413715957492585 211.2265323257908 23.413715957492585 C211.2265323257908 23.413715957492585 211.2265323257908 24.878156864432302 211.2265323257908 24.878156864432302 C211.2265323257908 24.878156864432302 202.78675227481588 24.878156864432302 202.78675227481588 24.878156864432302 Z" style="stroke-width: 0; stroke-linecap: butt; stroke-linejoin: miter; fill: rgb(24, 117, 188);" vector-effect="non-scaling-stroke"/></g></g></svg>