<svg version="1.2" xmlns="http://www.w3.org/2000/svg" xmlns:xlink="http://www.w3.org/1999/xlink" overflow="visible" preserveAspectRatio="none" viewBox="0 0 18.49678857478483 30.973325302241534" width="18.49678857478483" height="30.973325302241534"><g transform="translate(0, 0)"><defs><path id="path-16636319363253127" d="M171.13967374978697 25.543690573506005 C171.13967374978697 25.543690573506005 170.96075824025985 25.543690573506005 170.96075824025985 25.543690573506005 C170.96075824025985 25.543690573506005 170.96075824025985 54.38704125973411 170.96075824025985 54.38704125973411 C170.96075824025985 54.38704125973411 169.43438529960656 54.38704125973411 169.43438529960656 54.38704125973411 C169.43438529960656 54.38704125973411 169.43438529960656 23.413715957492585 169.43438529960656 23.413715957492585 C169.43438529960656 23.413715957492585 171.7686735879683 23.413715957492585 171.7686735879683 23.413715957492585 C171.7686735879683 23.413715957492585 186.2244876467928 52.16770640622983 186.2244876467928 52.16770640622983 C186.2244876467928 52.16770640622983 186.40340315631994 52.16770640622983 186.40340315631994 52.16770640622983 C186.40340315631994 52.16770640622983 186.40340315631994 23.413715957492585 186.40340315631994 23.413715957492585 C186.40340315631994 23.413715957492585 187.93117387439142 23.413715957492585 187.93117387439142 23.413715957492585 C187.93117387439142 23.413715957492585 187.93117387439142 54.38704125973411 187.93117387439142 54.38704125973411 C187.93117387439142 54.38704125973411 185.59688558602966 54.38704125973411 185.59688558602966 54.38704125973411 C185.59688558602966 54.38704125973411 171.13967374978697 25.543690573506005 171.13967374978697 25.543690573506005 Z" vector-effect="non-scaling-stroke"/></defs><g transform="translate(-169.43438529960656, -23.413715957492585)"><path d="M171.13967374978697 25.543690573506005 C171.13967374978697 25.543690573506005 170.96075824025985 25.543690573506005 170.96075824025985 25.543690573506005 C170.96075824025985 25.543690573506005 170.96075824025985 54.38704125973411 170.96075824025985 54.38704125973411 C170.96075824025985 54.38704125973411 169.43438529960656 54.38704125973411 169.43438529960656 54.38704125973411 C169.43438529960656 54.38704125973411 169.43438529960656 23.413715957492585 169.43438529960656 23.413715957492585 C169.43438529960656 23.413715957492585 171.7686735879683 23.413715957492585 171.7686735879683 23.413715957492585 C171.7686735879683 23.413715957492585 186.2244876467928 52.16770640622983 186.2244876467928 52.16770640622983 C186.2244876467928 52.16770640622983 186.40340315631994 52.16770640622983 186.40340315631994 52.16770640622983 C186.40340315631994 52.16770640622983 186.40340315631994 23.413715957492585 186.40340315631994 23.413715957492585 C186.40340315631994 23.413715957492585 187.93117387439142 23.413715957492585 187.93117387439142 23.413715957492585 C187.93117387439142 23.413715957492585 187.93117387439142 54.38704125973411 187.93117387439142 54.38704125973411 C187.93117387439142 54.38704125973411 185.59688558602966 54.38704125973411 185.59688558602966 54.38704125973411 C185.59688558602966 54.38704125973411 171.13967374978697 25.543690573506005 171.13967374978697 25.543690573506005 Z" style="stroke-width: 0; stroke-linecap: butt; stroke-linejoin: miter; fill: rgb(24, 117, 188);" vector-effect="non-scaling-stroke"/></g></g></svg>