<svg version="1.2" xmlns="http://www.w3.org/2000/svg" xmlns:xlink="http://www.w3.org/1999/xlink" overflow="visible" preserveAspectRatio="none" viewBox="0 0 1.6158306954168609 30.993331325560376" width="1.6158306954168609" height="30.993331325560376"><g transform="translate(0, 0)"><defs><path id="path-16636319363253133" d="M135.94084280516088 53.06130878113839 C135.94084280516088 53.06130878113839 135.94084280516088 24.732779761648658 135.94084280516088 24.732779761648658 C135.94084280516088 24.732779761648658 135.94084280516088 23.40037860861334 135.94084280516088 23.40037860861334 C135.94084280516088 23.40037860861334 137.55667350057774 23.40037860861334 137.55667350057774 23.40037860861334 C137.55667350057774 23.40037860861334 137.55667350057774 24.732779761648658 137.55667350057774 24.732779761648658 C137.55667350057774 24.732779761648658 137.55667350057774 53.06130878113839 137.55667350057774 53.06130878113839 C137.55667350057774 53.06130878113839 137.55667350057774 54.39370993417371 137.55667350057774 54.39370993417371 C137.55667350057774 54.39370993417371 135.94084280516088 54.39370993417371 135.94084280516088 54.39370993417371 C135.94084280516088 54.39370993417371 135.94084280516088 53.06130878113839 135.94084280516088 53.06130878113839 Z" vector-effect="non-scaling-stroke"/></defs><g transform="translate(-135.94084280516088, -23.40037860861334)"><path d="M135.94084280516088 53.06130878113839 C135.94084280516088 53.06130878113839 135.94084280516088 24.732779761648658 135.94084280516088 24.732779761648658 C135.94084280516088 24.732779761648658 135.94084280516088 23.40037860861334 135.94084280516088 23.40037860861334 C135.94084280516088 23.40037860861334 137.55667350057774 23.40037860861334 137.55667350057774 23.40037860861334 C137.55667350057774 23.40037860861334 137.55667350057774 24.732779761648658 137.55667350057774 24.732779761648658 C137.55667350057774 24.732779761648658 137.55667350057774 53.06130878113839 137.55667350057774 53.06130878113839 C137.55667350057774 53.06130878113839 137.55667350057774 54.39370993417371 137.55667350057774 54.39370993417371 C137.55667350057774 54.39370993417371 135.94084280516088 54.39370993417371 135.94084280516088 54.39370993417371 C135.94084280516088 54.39370993417371 135.94084280516088 53.06130878113839 135.94084280516088 53.06130878113839 Z" style="stroke-width: 0; stroke-linecap: butt; stroke-linejoin: miter; fill: rgb(24, 117, 188);" vector-effect="non-scaling-stroke"/></g></g></svg>