<svg version="1.2" xmlns="http://www.w3.org/2000/svg" xmlns:xlink="http://www.w3.org/1999/xlink" overflow="visible" preserveAspectRatio="none" viewBox="0 0 18.496788574784773 30.986662651120767" width="18.496788574784773" height="30.986662651120767"><g transform="translate(0, 0)"><defs><path id="path-16636319363253131" d="M146.13762907078885 54.400378608613345 C146.13762907078885 54.400378608613345 146.13762907078885 23.41371595749258 146.13762907078885 23.41371595749258 C146.13762907078885 23.41371595749258 164.63441764557362 23.41371595749258 164.63441764557362 23.41371595749258 C164.63441764557362 23.41371595749258 164.63441764557362 24.878156864432302 164.63441764557362 24.878156864432302 C164.63441764557362 24.878156864432302 147.75765309846022 24.878156864432302 147.75765309846022 24.878156864432302 C147.75765309846022 24.878156864432302 147.75765309846022 37.93008647764919 147.75765309846022 37.93008647764919 C147.75765309846022 37.93008647764919 164.05014668477415 37.93008647764919 164.05014668477415 37.93008647764919 C164.05014668477415 37.93008647764919 164.05014668477415 39.394527384588905 164.05014668477415 39.394527384588905 C164.05014668477415 39.394527384588905 147.75765309846022 39.394527384588905 147.75765309846022 39.394527384588905 C147.75765309846022 39.394527384588905 147.75765309846022 52.9346039667857 147.75765309846022 52.9346039667857 C147.75765309846022 52.9346039667857 164.63441764557362 52.9346039667857 164.63441764557362 52.9346039667857 C164.63441764557362 52.9346039667857 164.63441764557362 54.400378608613345 164.63441764557362 54.400378608613345 C164.63441764557362 54.400378608613345 146.13762907078885 54.400378608613345 146.13762907078885 54.400378608613345 Z" vector-effect="non-scaling-stroke"/></defs><g transform="translate(-146.13762907078885, -23.41371595749258)"><path d="M146.13762907078885 54.400378608613345 C146.13762907078885 54.400378608613345 146.13762907078885 23.41371595749258 146.13762907078885 23.41371595749258 C146.13762907078885 23.41371595749258 164.63441764557362 23.41371595749258 164.63441764557362 23.41371595749258 C164.63441764557362 23.41371595749258 164.63441764557362 24.878156864432302 164.63441764557362 24.878156864432302 C164.63441764557362 24.878156864432302 147.75765309846022 24.878156864432302 147.75765309846022 24.878156864432302 C147.75765309846022 24.878156864432302 147.75765309846022 37.93008647764919 147.75765309846022 37.93008647764919 C147.75765309846022 37.93008647764919 164.05014668477415 37.93008647764919 164.05014668477415 37.93008647764919 C164.05014668477415 37.93008647764919 164.05014668477415 39.394527384588905 164.05014668477415 39.394527384588905 C164.05014668477415 39.394527384588905 147.75765309846022 39.394527384588905 147.75765309846022 39.394527384588905 C147.75765309846022 39.394527384588905 147.75765309846022 52.9346039667857 147.75765309846022 52.9346039667857 C147.75765309846022 52.9346039667857 164.63441764557362 52.9346039667857 164.63441764557362 52.9346039667857 C164.63441764557362 52.9346039667857 164.63441764557362 54.400378608613345 164.63441764557362 54.400378608613345 C164.63441764557362 54.400378608613345 146.13762907078885 54.400378608613345 146.13762907078885 54.400378608613345 Z" style="stroke-width: 0; stroke-linecap: butt; stroke-linejoin: miter; fill: rgb(24, 117, 188);" vector-effect="non-scaling-stroke"/></g></g></svg>